REM DIRINDEX 1\2\5,1\2\6,1\2\7,1\2\8,1\3\9,1\3\10,1\3\11,1\4\12,1\4\13,1\4\14,1\4\15,1\4\16
REM DIRNAME folder01,folder02,folder03,folder04,folder05,folder06,folder07,folder08,folder09,folder10,folder11,folder12,folder13,folder14,folder15,folder16
TITLE ""
FILE "1200_sec05_1497_1504.mp3" MP3
  TRACK 01 AUDIO
    TITLE "0:"
    INDEX 01 00:00:00
  TRACK 02 AUDIO
    TITLE "12:cjc034_09732"
    INDEX 01 00:00:17
  TRACK 03 AUDIO
    TITLE "0:"
    INDEX 01 00:01:32
  TRACK 04 AUDIO
    TITLE "13:cjc034_09733"
    INDEX 01 00:01:64
  TRACK 05 AUDIO
    TITLE "0:"
    INDEX 01 00:05:05
  TRACK 06 AUDIO
    TITLE "14:cjc034_09734"
    INDEX 01 00:05:36
  TRACK 07 AUDIO
    TITLE "0:"
    INDEX 01 00:06:51
  TRACK 08 AUDIO
    TITLE "15:cjc034_09735"
    INDEX 01 00:07:11
  TRACK 09 AUDIO
    TITLE "0:"
    INDEX 01 00:10:68
  TRACK 10 AUDIO
    TITLE "12:cjc034_09736"
    INDEX 01 00:12:28
  TRACK 11 AUDIO
    TITLE "0:"
    INDEX 01 00:13:41
  TRACK 12 AUDIO
    TITLE "13:cjc034_09737"
    INDEX 01 00:14:04
  TRACK 13 AUDIO
    TITLE "0:"
    INDEX 01 00:16:26
  TRACK 14 AUDIO
    TITLE "14:cjc034_09738"
    INDEX 01 00:16:57
  TRACK 15 AUDIO
    TITLE "0:"
    INDEX 01 00:17:72
  TRACK 16 AUDIO
    TITLE "15:cjc034_09739"
    INDEX 01 00:18:31
  TRACK 17 AUDIO
    TITLE "0:"
    INDEX 01 00:23:38
  TRACK 18 AUDIO
    TITLE "12:cjc034_09740"
    INDEX 01 00:24:72
  TRACK 19 AUDIO
    TITLE "0:"
    INDEX 01 00:26:05
  TRACK 20 AUDIO
    TITLE "13:cjc034_09741"
    INDEX 01 00:26:40
  TRACK 21 AUDIO
    TITLE "0:"
    INDEX 01 00:30:48
  TRACK 22 AUDIO
    TITLE "14:cjc034_09742"
    INDEX 01 00:31:04
  TRACK 23 AUDIO
    TITLE "0:"
    INDEX 01 00:32:11
  TRACK 24 AUDIO
    TITLE "15:cjc034_09743"
    INDEX 01 00:32:47
  TRACK 25 AUDIO
    TITLE "0:"
    INDEX 01 00:37:56
  TRACK 26 AUDIO
    TITLE "12:cjc034_09744"
    INDEX 01 00:39:13
  TRACK 27 AUDIO
    TITLE "0:"
    INDEX 01 00:40:60
  TRACK 28 AUDIO
    TITLE "13:cjc034_09745"
    INDEX 01 00:41:16
  TRACK 29 AUDIO
    TITLE "0:"
    INDEX 01 00:44:26
  TRACK 30 AUDIO
    TITLE "14:cjc034_09746"
    INDEX 01 00:44:60
  TRACK 31 AUDIO
    TITLE "0:"
    INDEX 01 00:46:33
  TRACK 32 AUDIO
    TITLE "15:cjc034_09747"
    INDEX 01 00:46:62
  TRACK 33 AUDIO
    TITLE "0:"
    INDEX 01 00:52:36
  TRACK 34 AUDIO
    TITLE "12:cjc034_09748"
    INDEX 01 00:53:66
  TRACK 35 AUDIO
    TITLE "0:"
    INDEX 01 00:54:72
  TRACK 36 AUDIO
    TITLE "13:cjc034_09749"
    INDEX 01 00:55:26
  TRACK 37 AUDIO
    TITLE "0:"
    INDEX 01 00:59:47
  TRACK 38 AUDIO
    TITLE "14:cjc034_09750"
    INDEX 01 01:00:06
  TRACK 39 AUDIO
    TITLE "0:"
    INDEX 01 01:01:11
  TRACK 40 AUDIO
    TITLE "15:cjc034_09751"
    INDEX 01 01:01:42
  TRACK 41 AUDIO
    TITLE "0:"
    INDEX 01 01:04:74
  TRACK 42 AUDIO
    TITLE "12:cjc034_09752"
    INDEX 01 01:06:34
  TRACK 43 AUDIO
    TITLE "0:"
    INDEX 01 01:07:39
  TRACK 44 AUDIO
    TITLE "13:cjc034_09753"
    INDEX 01 01:07:72
  TRACK 45 AUDIO
    TITLE "0:"
    INDEX 01 01:12:68
  TRACK 46 AUDIO
    TITLE "14:cjc034_09754"
    INDEX 01 01:13:22
  TRACK 47 AUDIO
    TITLE "0:"
    INDEX 01 01:14:27
  TRACK 48 AUDIO
    TITLE "15:cjc034_09755"
    INDEX 01 01:14:59
  TRACK 49 AUDIO
    TITLE "0:"
    INDEX 01 01:19:74
  TRACK 50 AUDIO
    TITLE "12:cjc034_09756"
    INDEX 01 01:21:31
  TRACK 51 AUDIO
    TITLE "0:"
    INDEX 01 01:22:48
  TRACK 52 AUDIO
    TITLE "13:cjc034_09757"
    INDEX 01 01:23:05
  TRACK 53 AUDIO
    TITLE "0:"
    INDEX 01 01:26:17
  TRACK 54 AUDIO
    TITLE "14:cjc034_09758"
    INDEX 01 01:26:50
  TRACK 55 AUDIO
    TITLE "0:"
    INDEX 01 01:27:65
  TRACK 56 AUDIO
    TITLE "15:cjc034_09759"
    INDEX 01 01:28:22
  TRACK 57 AUDIO
    TITLE "0:"
    INDEX 01 01:34:03
  TRACK 58 AUDIO
    TITLE "12:cjc034_09760"
    INDEX 01 01:35:33
  TRACK 59 AUDIO
    TITLE "0:"
    INDEX 01 01:36:56
  TRACK 60 AUDIO
    TITLE "13:cjc034_09761"
    INDEX 01 01:37:15
  TRACK 61 AUDIO
    TITLE "0:"
    INDEX 01 01:41:59
  TRACK 62 AUDIO
    TITLE "14:cjc034_09762"
    INDEX 01 01:42:16
  TRACK 63 AUDIO
    TITLE "0:"
    INDEX 01 01:43:41
  TRACK 64 AUDIO
    TITLE "15:cjc034_09763"
    INDEX 01 01:43:74
  TRACK 65 AUDIO
    TITLE "0:"
    INDEX 01 01:47:39
